<svg width="61" height="56" viewBox="0 0 61 56" fill="none" xmlns="http://www.w3.org/2000/svg">
<circle cx="30.949" cy="28.3288" r="27.6656" fill="#1B8202"/>
<path d="M41.4461 25.499V19.2464C41.4461 17.8651 40.3264 16.7454 38.9451 16.7454H22.6883C21.307 16.7454 20.1873 17.8651 20.1873 19.2464V36.7537C20.1873 38.135 21.307 39.2547 22.6883 39.2547H28.9409" stroke="white" stroke-width="1.5" stroke-linecap="round" stroke-linejoin="round"/>
<path d="M28.003 31.7516H28.9409" stroke="white" stroke-width="1.5" stroke-linecap="round" stroke-linejoin="round"/>
<path d="M28.0029 26.7495H33.9429" stroke="white" stroke-width="1.5" stroke-linecap="round" stroke-linejoin="round"/>
<path d="M28.0029 21.9037H36.4439" stroke="white" stroke-width="1.5" stroke-linecap="round" stroke-linejoin="round"/>
<path d="M24.0951 31.9079C24.1814 31.9079 24.2514 31.8379 24.2514 31.7516C24.2514 31.6653 24.1814 31.5953 24.0951 31.5953C24.0088 31.5953 23.9388 31.6653 23.9388 31.7516C23.9388 31.8379 24.0088 31.9079 24.0951 31.9079" stroke="white" stroke-width="1.5" stroke-linecap="round" stroke-linejoin="round"/>
<path d="M24.0951 26.9058C24.1814 26.9058 24.2514 26.8359 24.2514 26.7495C24.2514 26.6632 24.1814 26.5932 24.0951 26.5932C24.0088 26.5932 23.9388 26.6632 23.9388 26.7495C23.9388 26.8359 24.0088 26.9058 24.0951 26.9058" stroke="white" stroke-width="1.5" stroke-linecap="round" stroke-linejoin="round"/>
<path d="M24.0951 22.06C24.1814 22.06 24.2514 21.99 24.2514 21.9037C24.2514 21.8174 24.1814 21.7474 24.0951 21.7474C24.0088 21.7474 23.9388 21.8174 23.9388 21.9037C23.9388 21.99 24.0088 22.06 24.0951 22.06" stroke="white" stroke-width="1.5" stroke-linecap="round" stroke-linejoin="round"/>
<path d="M38.3197 29.2505C41.4276 29.2505 43.9471 31.7699 43.9471 34.8778C43.9471 37.9857 41.4276 40.5052 38.3197 40.5052C35.2118 40.5052 32.6924 37.9857 32.6924 34.8778C32.6924 31.7699 35.2118 29.2505 38.3197 29.2505" stroke="white" stroke-width="1.5" stroke-linecap="round" stroke-linejoin="round"/>
<path d="M40.2656 33.9062L37.8346 36.3373L36.374 34.8779" stroke="white" stroke-width="1.5" stroke-linecap="round" stroke-linejoin="round"/>
</svg>
