<?xml version="1.0" encoding="utf-8"?>
<!-- Generator: Adobe Illustrator 16.0.0, SVG Export Plug-In . SVG Version: 6.00 Build 0)  -->
<!DOCTYPE svg PUBLIC "-//W3C//DTD SVG 1.1//EN" "http://www.w3.org/Graphics/SVG/1.1/DTD/svg11.dtd">
<svg version="1.1" id="Layer_1" xmlns="http://www.w3.org/2000/svg" xmlns:xlink="http://www.w3.org/1999/xlink" x="0px" y="0px"
	 width="55px" height="55px" viewBox="0 0 55 55" enable-background="new 0 0 55 55" xml:space="preserve">
<circle fill="#1B8202" cx="27.5" cy="27.5" r="27.5"/>
<path fill="#FFFFFF" d="M24,23c0-1.061,0.421-2.078,1.171-2.829C25.922,19.421,26.939,19,28,19s2.078,0.421,2.829,1.171
	C31.579,20.922,32,21.939,32,23s-0.421,2.078-1.171,2.829C30.078,26.579,29.061,27,28,27s-2.078-0.421-2.829-1.171
	C24.421,25.078,24,24.061,24,23z M31.824,27.623c0.951-0.787,1.637-1.849,1.962-3.04c0.326-1.191,0.276-2.454-0.142-3.616
	c-0.418-1.162-1.185-2.166-2.195-2.876C30.439,17.381,29.234,17,28,17s-2.44,0.381-3.45,1.091c-1.01,0.71-1.777,1.715-2.195,2.876
	c-0.418,1.162-0.468,2.425-0.142,3.616c0.326,1.191,1.011,2.253,1.962,3.04C20.986,28.746,19,31.247,19,34
	c0,0.266,0.105,0.52,0.293,0.707S19.735,35,20,35s0.52-0.105,0.707-0.293S21,34.266,21,34c0-2.27,2.355-5,7-5s7,2.73,7,5
	c0,0.266,0.105,0.52,0.293,0.707S35.735,35,36,35s0.52-0.105,0.707-0.293S37,34.266,37,34C37,31.247,35.016,28.746,31.824,27.623z"
	/>
</svg>
