<?xml version="1.0" encoding="utf-8"?>
<!-- Generator: Adobe Illustrator 16.0.0, SVG Export Plug-In . SVG Version: 6.00 Build 0)  -->
<!DOCTYPE svg PUBLIC "-//W3C//DTD SVG 1.1//EN" "http://www.w3.org/Graphics/SVG/1.1/DTD/svg11.dtd">
<svg version="1.1" id="Layer_1" xmlns="http://www.w3.org/2000/svg" xmlns:xlink="http://www.w3.org/1999/xlink" x="0px" y="0px"
	 width="48px" height="48px" viewBox="-158.927 39 48 48" enable-background="new -158.927 39 48 48" xml:space="preserve">
<g>
	<circle fill="#6EB52C" cx="-134.927" cy="63" r="24"/>
	<path fill="none" stroke="#FFFFFF" stroke-width="1.5" stroke-linecap="round" stroke-linejoin="round" d="M-131.927,65.889
		h-10.816c-1.206,0-2.184-0.978-2.184-2.184v-7.521c0-1.206,0.978-2.184,2.184-2.184h10.633c1.205,0,2.183,0.978,2.183,2.184V61"/>
	<path fill="none" stroke="#FFFFFF" stroke-width="1.5" stroke-linecap="round" stroke-linejoin="round" d="M-135.727,65.89
		l0.39,3.11"/>
	<path fill="none" stroke="#FFFFFF" stroke-width="1.5" stroke-linecap="round" stroke-linejoin="round" d="M-138.837,65.89
		l-0.39,3.11"/>
	<path fill="none" stroke="#FFFFFF" stroke-width="1.5" stroke-linecap="round" stroke-linejoin="round" d="M-140.287,69h6"/>
	<path fill="none" stroke="#FFFFFF" stroke-width="1.5" stroke-linecap="round" stroke-linejoin="round" d="M-129.927,61h3
		c1.105,0,2,0.895,2,2v7c0,1.105-0.895,2-2,2h-3c-1.105,0-2-0.895-2-2v-7C-131.927,61.895-131.032,61-129.927,61z"/>
	<path fill="none" stroke="#FFFFFF" stroke-width="1.5" stroke-linecap="round" stroke-linejoin="round" d="M-129.177,69.75h1.5"/>
</g>
</svg>
