<?xml version="1.0" encoding="utf-8"?>
<!-- Generator: Adobe Illustrator 16.0.0, SVG Export Plug-In . SVG Version: 6.00 Build 0)  -->
<!DOCTYPE svg PUBLIC "-//W3C//DTD SVG 1.1//EN" "http://www.w3.org/Graphics/SVG/1.1/DTD/svg11.dtd">
<svg version="1.1" id="Layer_1" xmlns="http://www.w3.org/2000/svg" xmlns:xlink="http://www.w3.org/1999/xlink" x="0px" y="0px"
	 width="55px" height="55px" viewBox="0 0 55 55" enable-background="new 0 0 55 55" xml:space="preserve">
<circle fill="#1B8202" cx="27.5" cy="27.5" r="27.5"/>
<path fill="#FFFFFF" d="M26.195,16.072C26.412,15.865,26.7,15.75,27,15.75s0.588,0.115,0.805,0.322l9.333,8.889l2.917,2.776
	c0.224,0.214,0.354,0.507,0.362,0.817c0.008,0.309-0.108,0.609-0.322,0.834c-0.213,0.225-0.507,0.354-0.817,0.361
	c-0.31,0.008-0.609-0.107-0.833-0.32L37.5,28.527v8.807c0,0.618-0.246,1.211-0.683,1.649c-0.438,0.438-1.031,0.683-1.65,0.683
	H18.833c-0.619,0-1.212-0.245-1.65-0.683c-0.438-0.438-0.684-1.031-0.684-1.649v-8.807l-0.945,0.9
	c-0.224,0.214-0.524,0.33-0.833,0.322c-0.31-0.008-0.603-0.138-0.817-0.361c-0.213-0.225-0.329-0.523-0.322-0.834
	c0.007-0.309,0.138-0.603,0.362-0.816l2.917-2.778L26.195,16.072L26.195,16.072z M18.833,26.306v11.028H23.5V31.5
	c0-0.928,0.369-1.818,1.025-2.475C25.182,28.369,26.072,28,27,28s1.818,0.369,2.475,1.025c0.656,0.656,1.025,1.547,1.025,2.475
	v5.834h4.667V26.306L27,18.527l-8.167,7.778V26.306z M28.167,37.334V31.5c0-0.31-0.123-0.605-0.341-0.825
	c-0.219-0.219-0.516-0.341-0.825-0.341c-0.309,0-0.606,0.122-0.825,0.341c-0.219,0.22-0.342,0.516-0.342,0.825v5.834H28.167z"/>
</svg>
