<?xml version="1.0" encoding="utf-8"?>
<!-- Generator: Adobe Illustrator 16.0.0, SVG Export Plug-In . SVG Version: 6.00 Build 0)  -->
<!DOCTYPE svg PUBLIC "-//W3C//DTD SVG 1.1//EN" "http://www.w3.org/Graphics/SVG/1.1/DTD/svg11.dtd">
<svg version="1.1" id="Layer_1" xmlns="http://www.w3.org/2000/svg" xmlns:xlink="http://www.w3.org/1999/xlink" x="0px" y="0px"
	 width="48px" height="48px" viewBox="-179 210.6 48 48" enable-background="new -179 210.6 48 48" xml:space="preserve">
<g>
	<circle fill="#6EB52C" cx="-155" cy="234.6" r="24"/>
	<path fill="none" stroke="#FFFFFF" stroke-width="2" stroke-linecap="round" stroke-linejoin="round" d="M-149.4,232.8h-11.2
		c-0.883,0-1.6,0.716-1.6,1.6V240c0,0.884,0.717,1.6,1.6,1.6h11.2c0.884,0,1.6-0.716,1.6-1.6v-5.601
		C-147.8,233.516-148.516,232.8-149.4,232.8z"/>
	<path fill="none" stroke="#FFFFFF" stroke-width="2" stroke-linecap="round" stroke-linejoin="round" d="M-159,232.8v-3.2
		c0-1.061,0.421-2.078,1.171-2.828c0.75-0.751,1.768-1.172,2.829-1.172s2.078,0.421,2.829,1.172c0.75,0.75,1.171,1.768,1.171,2.828
		v3.2"/>
</g>
</svg>
