<?xml version="1.0" encoding="utf-8"?>
<!-- Generator: Adobe Illustrator 16.0.0, SVG Export Plug-In . SVG Version: 6.00 Build 0)  -->
<!DOCTYPE svg PUBLIC "-//W3C//DTD SVG 1.1//EN" "http://www.w3.org/Graphics/SVG/1.1/DTD/svg11.dtd">
<svg version="1.1" id="Layer_1" xmlns="http://www.w3.org/2000/svg" xmlns:xlink="http://www.w3.org/1999/xlink" x="0px" y="0px"
	 width="56.614px" height="56px" viewBox="0 0 56.614 56" enable-background="new 0 0 56.614 56" xml:space="preserve">
<circle fill="#1B8202" cx="28.948" cy="28.086" r="27.666"/>
<path fill="none" stroke="#FFFFFF" stroke-width="1.5" stroke-linecap="round" stroke-linejoin="round" d="M35.134,39.25H21.85
	c-1.334,0-2.416-1.119-2.416-2.5v-17.5c0-1.381,1.081-2.5,2.416-2.5h13.284c1.334,0,2.416,1.119,2.416,2.5v17.5
	C37.55,38.131,36.469,39.25,35.134,39.25z"/>
<path fill="none" stroke="#FFFFFF" stroke-width="1.5" stroke-linecap="round" stroke-linejoin="round" d="M30.908,22.375h2.415"/>
<path fill="none" stroke="#FFFFFF" stroke-width="1.5" stroke-linecap="round" stroke-linejoin="round" d="M30.908,26.125h2.415"/>
<path fill="none" stroke="#FFFFFF" stroke-width="1.5" stroke-linecap="round" stroke-linejoin="round" d="M23.662,31.75h9.661"/>
<path fill="none" stroke="#FFFFFF" stroke-width="1.5" stroke-linecap="round" stroke-linejoin="round" d="M23.662,35.5h9.661"/>
<path fill="none" stroke="#FFFFFF" stroke-width="1.5" stroke-linecap="round" stroke-linejoin="round" d="M25.473,21.438V20.5"/>
<path fill="none" stroke="#FFFFFF" stroke-width="1.5" stroke-linecap="round" stroke-linejoin="round" d="M25.473,27.062V28"/>
<path fill="none" stroke="#FFFFFF" stroke-width="1.5" stroke-linecap="round" stroke-linejoin="round" d="M23.9,26.393
	c0.234,0.397,0.635,0.672,1.12,0.672h0.453h0.54c0.703,0,1.271-0.59,1.271-1.316c0-0.604-0.397-1.13-0.962-1.277l-1.698-0.44
	c-0.565-0.147-0.962-0.674-0.962-1.277c0-0.727,0.57-1.316,1.271-1.316h0.54h0.453c0.483,0,0.883,0.274,1.117,0.67"/>
</svg>
