<?xml version="1.0" encoding="utf-8"?>
<!-- Generator: Adobe Illustrator 16.0.0, SVG Export Plug-In . SVG Version: 6.00 Build 0)  -->
<!DOCTYPE svg PUBLIC "-//W3C//DTD SVG 1.1//EN" "http://www.w3.org/Graphics/SVG/1.1/DTD/svg11.dtd">
<svg version="1.1" id="Layer_1" xmlns="http://www.w3.org/2000/svg" xmlns:xlink="http://www.w3.org/1999/xlink" x="0px" y="0px"
	 width="57.628px" height="56px" viewBox="0 0 57.628 56" enable-background="new 0 0 57.628 56" xml:space="preserve">
<circle fill="#1B8202" cx="29.963" cy="28.086" r="27.666"/>
<path fill="#FFFFFF" d="M17.784,17.6c0-0.689,0.281-1.351,0.781-1.839c0.5-0.487,1.178-0.761,1.886-0.761h18.667
	c0.708,0,1.386,0.274,1.886,0.761c0.5,0.488,0.781,1.149,0.781,1.839v19.5c0,1.035-0.421,2.027-1.171,2.758
	C39.862,40.59,38.845,41,37.784,41h-16c-1.061,0-2.078-0.41-2.828-1.143c-0.75-0.73-1.172-1.723-1.172-2.758V17.6z M39.117,17.6
	H20.451v19.5c0,0.346,0.141,0.676,0.391,0.92S21.43,38.4,21.784,38.4h16c0.354,0,0.693-0.137,0.943-0.381s0.391-0.574,0.391-0.92
	V17.6z M31.117,26.7c0,0.345-0.141,0.675-0.391,0.919S30.138,28,29.784,28c-0.354,0-0.692-0.137-0.942-0.381
	s-0.391-0.574-0.391-0.919c0-0.345,0.141-0.676,0.391-0.919S29.43,25.4,29.784,25.4c0.354,0,0.693,0.137,0.943,0.381
	S31.117,26.355,31.117,26.7z M24.451,28c0.354,0,0.693-0.137,0.943-0.381s0.39-0.574,0.39-0.919c0-0.345-0.14-0.676-0.39-0.919
	S24.804,25.4,24.451,25.4s-0.693,0.137-0.943,0.381s-0.391,0.574-0.391,0.919c0,0.345,0.141,0.675,0.391,0.919S24.097,28,24.451,28z
	 M36.451,26.7c0,0.345-0.141,0.675-0.391,0.919S35.471,28,35.117,28s-0.693-0.137-0.943-0.381s-0.391-0.574-0.391-0.919
	c0-0.345,0.141-0.676,0.391-0.919s0.589-0.381,0.943-0.381s0.693,0.137,0.943,0.381S36.451,26.355,36.451,26.7z M24.451,31.9
	c0.354,0,0.693-0.137,0.943-0.381s0.39-0.574,0.39-0.92c0-0.344-0.14-0.675-0.39-0.919c-0.25-0.243-0.589-0.381-0.943-0.381
	s-0.693,0.138-0.943,0.381c-0.25,0.244-0.391,0.575-0.391,0.919c0,0.346,0.141,0.676,0.391,0.92S24.097,31.9,24.451,31.9z
	 M31.117,30.6c0,0.346-0.141,0.676-0.391,0.92S30.138,31.9,29.784,31.9c-0.354,0-0.692-0.137-0.942-0.381s-0.391-0.574-0.391-0.92
	c0-0.344,0.141-0.675,0.391-0.919c0.25-0.243,0.589-0.381,0.942-0.381c0.354,0,0.693,0.138,0.943,0.381
	C30.977,29.925,31.117,30.256,31.117,30.6z M35.117,31.9c0.354,0,0.693-0.137,0.943-0.381s0.391-0.574,0.391-0.92
	c0-0.344-0.141-0.675-0.391-0.919c-0.25-0.243-0.589-0.381-0.943-0.381s-0.693,0.138-0.943,0.381
	c-0.25,0.244-0.391,0.575-0.391,0.919c0,0.346,0.141,0.676,0.391,0.92S34.764,31.9,35.117,31.9z M25.784,34.5
	c0,0.345-0.14,0.676-0.39,0.92c-0.25,0.243-0.589,0.38-0.943,0.38s-0.693-0.137-0.943-0.38c-0.25-0.244-0.391-0.575-0.391-0.92
	s0.141-0.676,0.391-0.92c0.25-0.243,0.589-0.38,0.943-0.38s0.693,0.137,0.943,0.38C25.644,33.824,25.784,34.155,25.784,34.5z
	 M29.784,35.8c0.354,0,0.693-0.137,0.943-0.38c0.25-0.244,0.391-0.575,0.391-0.92s-0.141-0.676-0.391-0.92
	c-0.25-0.243-0.589-0.38-0.943-0.38c-0.354,0-0.692,0.137-0.942,0.38c-0.25,0.244-0.391,0.575-0.391,0.92s0.141,0.676,0.391,0.92
	C29.091,35.663,29.43,35.8,29.784,35.8z M36.451,34.5c0,0.345-0.141,0.676-0.391,0.92c-0.25,0.243-0.589,0.38-0.943,0.38
	s-0.693-0.137-0.943-0.38c-0.25-0.244-0.391-0.575-0.391-0.92s0.141-0.676,0.391-0.92c0.25-0.243,0.589-0.38,0.943-0.38
	s0.693,0.137,0.943,0.38C36.31,33.824,36.451,34.155,36.451,34.5z M24.451,20.2c-0.354,0-0.693,0.137-0.943,0.38
	c-0.25,0.244-0.391,0.575-0.391,0.919s0.141,0.675,0.391,0.919c0.25,0.244,0.589,0.38,0.943,0.38h10.667
	c0.354,0,0.693-0.137,0.943-0.38c0.25-0.244,0.391-0.575,0.391-0.919s-0.141-0.675-0.391-0.919c-0.25-0.244-0.589-0.38-0.943-0.38
	H24.451z"/>
</svg>
