<?xml version="1.0" encoding="utf-8"?>
<!-- Generator: Adobe Illustrator 16.0.0, SVG Export Plug-In . SVG Version: 6.00 Build 0)  -->
<!DOCTYPE svg PUBLIC "-//W3C//DTD SVG 1.1//EN" "http://www.w3.org/Graphics/SVG/1.1/DTD/svg11.dtd">
<svg version="1.1" id="Layer_1" xmlns="http://www.w3.org/2000/svg" xmlns:xlink="http://www.w3.org/1999/xlink" x="0px" y="0px"
	 width="55px" height="55px" viewBox="0 0 55 55" enable-background="new 0 0 55 55" xml:space="preserve">
<circle fill="#1B8202" cx="27.5" cy="27.5" r="27.5"/>
<path fill="#FFFFFF" d="M23.616,14.616c0.234-0.234,0.552-0.366,0.884-0.366h10c0.995,0,1.948,0.395,2.652,1.099
	c0.703,0.703,1.098,1.657,1.098,2.651v6.25c0,0.332-0.132,0.649-0.366,0.884C37.649,25.369,37.332,25.5,37,25.5
	s-0.649-0.131-0.884-0.366c-0.234-0.234-0.366-0.552-0.366-0.884V18c0-0.332-0.132-0.649-0.366-0.884S34.832,16.75,34.5,16.75h-8.75
	V23c0,0.332-0.132,0.649-0.366,0.884c-0.234,0.235-0.552,0.366-0.884,0.366h-6.25V38c0,0.332,0.132,0.649,0.366,0.884
	c0.234,0.235,0.552,0.366,0.884,0.366h3.75c0.332,0,0.649,0.132,0.884,0.366S24.5,40.168,24.5,40.5s-0.132,0.649-0.366,0.884
	c-0.234,0.235-0.552,0.366-0.884,0.366H19.5c-0.995,0-1.948-0.395-2.652-1.098C16.145,39.949,15.75,38.994,15.75,38V23
	c0-0.332,0.132-0.649,0.366-0.884L23.616,14.616z M20.018,21.75h3.232v-3.232L20.018,21.75z M35.384,28.366l5,5
	c0.234,0.235,0.366,0.552,0.366,0.884s-0.131,0.649-0.366,0.884l-5,5c-0.236,0.228-0.552,0.354-0.879,0.351
	c-0.328-0.002-0.641-0.134-0.873-0.365c-0.231-0.232-0.363-0.546-0.366-0.873c-0.003-0.328,0.123-0.645,0.351-0.88l4.116-4.116
	l-4.116-4.116c-0.228-0.235-0.354-0.552-0.351-0.88c0.002-0.327,0.134-0.641,0.366-0.873c0.232-0.23,0.545-0.362,0.873-0.365
	S35.148,28.139,35.384,28.366z M30.384,30.134c0.228-0.235,0.354-0.552,0.351-0.88c-0.002-0.327-0.134-0.641-0.366-0.873
	c-0.232-0.23-0.545-0.362-0.873-0.365s-0.644,0.123-0.879,0.351l-5,5c-0.234,0.235-0.366,0.552-0.366,0.884s0.131,0.649,0.366,0.884
	l5,5c0.236,0.228,0.552,0.354,0.879,0.351c0.328-0.002,0.641-0.134,0.873-0.365c0.231-0.232,0.363-0.546,0.366-0.873
	c0.003-0.328-0.123-0.645-0.351-0.88l-4.116-4.116L30.384,30.134z"/>
</svg>
