<?xml version="1.0" encoding="utf-8"?>
<!-- Generator: Adobe Illustrator 16.0.0, SVG Export Plug-In . SVG Version: 6.00 Build 0)  -->
<!DOCTYPE svg PUBLIC "-//W3C//DTD SVG 1.1//EN" "http://www.w3.org/Graphics/SVG/1.1/DTD/svg11.dtd">
<svg version="1.1" id="Layer_1" xmlns="http://www.w3.org/2000/svg" xmlns:xlink="http://www.w3.org/1999/xlink" x="0px" y="0px"
	 width="57.628px" height="56px" viewBox="0 0 57.628 56" enable-background="new 0 0 57.628 56" xml:space="preserve">
<circle fill="#1B8202" cx="28.84" cy="28.471" r="27.666"/>
<path fill="none" stroke="#FFFFFF" stroke-width="1.5" stroke-linecap="round" stroke-linejoin="round" d="M39.469,25.969v-6.252
	c0-1.381-1.12-2.501-2.501-2.501H20.711c-1.381,0-2.501,1.12-2.501,2.501v17.507c0,1.382,1.12,2.502,2.501,2.502h6.253"/>
<path fill="none" stroke="#FFFFFF" stroke-width="1.5" stroke-linecap="round" stroke-linejoin="round" d="M28.371,28.471h0.938"/>
<path fill="none" stroke="#FFFFFF" stroke-width="1.5" stroke-linecap="round" stroke-linejoin="round" d="M25.87,28.471h5.94"/>
<path fill="none" stroke="#FFFFFF" stroke-width="1.5" stroke-linecap="round" stroke-linejoin="round" d="M24.619,28.471h8.441"/>
<path fill="none" stroke="#FFFFFF" stroke-width="1.5" stroke-linecap="round" stroke-linejoin="round" d="M28.84,28.627
	c0.086,0,0.156-0.069,0.156-0.156c0-0.086-0.07-0.156-0.156-0.156c-0.086,0-0.157,0.07-0.157,0.156
	C28.683,28.558,28.753,28.627,28.84,28.627"/>
<path fill="none" stroke="#FFFFFF" stroke-width="1.5" stroke-linecap="round" stroke-linejoin="round" d="M28.84,28.627
	c0.086,0,0.156-0.07,0.156-0.156c0-0.086-0.07-0.156-0.156-0.156c-0.086,0-0.157,0.07-0.157,0.156
	C28.683,28.557,28.753,28.627,28.84,28.627"/>
<path fill="none" stroke="#FFFFFF" stroke-width="1.5" stroke-linecap="round" stroke-linejoin="round" d="M28.84,28.627
	c0.086,0,0.156-0.07,0.156-0.156c0-0.086-0.07-0.156-0.156-0.156c-0.086,0-0.157,0.07-0.157,0.156
	C28.683,28.557,28.753,28.627,28.84,28.627"/>
<path fill="none" stroke="#FFFFFF" stroke-width="1.5" stroke-linecap="round" stroke-linejoin="round" d="M28.839,22.844
	c3.108,0,5.627,2.52,5.627,5.627s-2.52,5.627-5.627,5.627s-5.627-2.52-5.627-5.627S25.731,22.844,28.839,22.844"/>
<path fill="none" stroke="#FFFFFF" stroke-width="1.5" stroke-linecap="round" stroke-linejoin="round" d="M30.785,27.255
	l-2.431,2.43l-1.46-1.458"/>
</svg>
