<svg width="30" height="29" viewBox="0 0 30 29" fill="none" xmlns="http://www.w3.org/2000/svg">
<path fill-rule="evenodd" clip-rule="evenodd" d="M9.55767 3.625H20.4435C23.4426 3.625 25.875 6.05617 25.875 9.05767V19.9435C25.875 22.9426 23.4438 25.375 20.4423 25.375H9.55767C6.55737 25.375 4.125 22.9438 4.125 19.9423V9.05767C4.125 6.05737 6.55617 3.625 9.55767 3.625V3.625Z" stroke="white" stroke-width="2" stroke-linecap="round" stroke-linejoin="round"/>
<path d="M20.98 8.11158C20.7553 8.11278 20.5728 8.29524 20.5728 8.51999C20.5728 8.74474 20.7565 8.9272 20.9812 8.9272C21.206 8.9272 21.3884 8.74474 21.3884 8.51999C21.3896 8.29403 21.206 8.11158 20.98 8.11158" stroke="white" stroke-width="2" stroke-linecap="round" stroke-linejoin="round"/>
<path d="M18.0761 11.424C19.7748 13.1227 19.7748 15.877 18.0761 17.5758C16.3773 19.2746 13.623 19.2746 11.9242 17.5758C10.2255 15.877 10.2255 13.1227 11.9242 11.424C13.623 9.72518 16.3773 9.72518 18.0761 11.424" stroke="white" stroke-width="2" stroke-linecap="round" stroke-linejoin="round"/>
</svg>
