<svg width="29" height="29" viewBox="0 0 29 29" fill="none" xmlns="http://www.w3.org/2000/svg">
<path fill-rule="evenodd" clip-rule="evenodd" d="M9.0625 3.625H19.9423C22.9426 3.625 25.375 6.05737 25.375 9.05767V19.9435C25.375 22.9426 22.9426 25.375 19.9423 25.375H9.05767C6.05737 25.375 3.625 22.9426 3.625 19.9423V9.0625C3.625 6.05979 6.05979 3.625 9.0625 3.625V3.625Z" stroke="white" stroke-width="2" stroke-linecap="round" stroke-linejoin="round"/>
<path d="M9.81169 13.4126V19.9376" stroke="white" stroke-width="2" stroke-linecap="round" stroke-linejoin="round"/>
<path d="M14.1604 19.9376V16.1313C14.1604 14.6294 15.3772 13.4126 16.8792 13.4126V13.4126C18.3811 13.4126 19.5979 14.6294 19.5979 16.1313V19.9376" stroke="white" stroke-width="2" stroke-linecap="round" stroke-linejoin="round"/>
<path d="M9.80926 9.4709C9.65943 9.4709 9.53739 9.59294 9.53859 9.74278C9.53859 9.89261 9.66064 10.0147 9.81047 10.0147C9.9603 10.0147 10.0823 9.89261 10.0823 9.74278C10.0823 9.59174 9.9603 9.4709 9.80926 9.4709" stroke="white" stroke-width="2" stroke-linecap="round" stroke-linejoin="round"/>
</svg>
