<svg width="34" height="27" viewBox="0 0 34 27" fill="none" xmlns="http://www.w3.org/2000/svg">
<path opacity="0.6" d="M11.0956 12.6265L14.5828 0H6.7366L2.13986 11.4353C0.317016 15.8029 0 17.3118 0 19.3765C0 23.9029 3.24942 27 7.68765 27C12.0466 27 15.296 23.9824 15.296 19.3765C15.296 16.1206 13.711 13.7382 11.0956 12.6265ZM29.7995 12.6265L33.2867 0H25.4406L20.8438 11.4353C19.021 15.8029 18.704 17.3118 18.704 19.3765C18.704 23.9029 21.9534 27 26.3916 27C30.7506 27 34 23.9824 34 19.3765C34 16.1206 32.4149 13.7382 29.7995 12.6265Z" fill="#46277A"/>
</svg>
