<svg width="187" height="32" viewBox="0 0 187 32" fill="none" xmlns="http://www.w3.org/2000/svg">
<path d="M7.61611 0C12.5666 0 15.5655 2.94799 15.5655 7.70282C15.5655 12.4576 12.519 15.4056 7.61611 15.4056H1.23755V0H7.61611ZM7.61611 12.2675C10.0914 12.2675 11.567 10.5557 11.567 7.75037C11.567 4.94502 10.0438 3.23328 7.61611 3.23328H5.14085V12.315H7.61611V12.2675Z" />
<path d="M25.5142 4.2793L25.3714 7.27484C25.0382 7.22729 24.8002 7.22729 24.5146 7.22729C22.3725 7.22729 21.4681 8.3209 21.4681 10.8885V15.4056H17.7076V4.42195H21.3253V6.56162C21.9441 5.08762 23.1817 4.1842 24.7526 4.1842C24.9906 4.1842 25.2762 4.23175 25.5142 4.2793Z" />
<path d="M19.8497 18.0684H3.66529C1.66604 18.0684 0 19.7325 0 21.7771C0 23.8217 1.66604 25.4859 3.7129 25.4859H19.8973C21.9442 25.4859 23.6102 23.8217 23.6102 21.7771C23.6102 19.7325 21.8966 18.0684 19.8497 18.0684ZM19.7545 24.2972C18.3265 24.2972 17.184 23.156 17.184 21.7296C17.184 20.3031 18.3265 19.162 19.7545 19.162C21.1825 19.162 22.325 20.3031 22.325 21.7296C22.325 23.156 21.1825 24.2972 19.7545 24.2972Z" />
<path d="M33.6541 25.2006V0.237793H51.1237V5.37301H39.8898V10.5082H49.2673V15.263H39.8898V25.2006H33.6541Z" />
<path d="M54.4557 25.2005V7.41748H60.5011V25.2005H54.4557Z" />
<path d="M83.064 14.0267V25.2005H77.0186V14.8826C77.0186 13.9792 77.0186 11.6017 74.591 11.6017C72.3537 11.6017 70.9733 13.2659 70.9733 15.9286V25.2005H64.9279V7.4175H70.6401V10.3655C71.7349 8.17827 74.0674 7.03711 76.5902 7.03711C80.5887 7.03711 83.064 9.69981 83.064 14.0267Z" />
<path d="M98.1537 25.2005C97.9156 24.63 97.8204 23.5364 97.7728 22.4903C96.5352 24.63 94.1552 25.5809 91.7275 25.5809C88.681 25.5809 86.2057 23.679 86.2057 20.208C86.2057 16.1188 89.157 14.5022 96.1544 14.1218L97.63 14.0267V13.789C97.63 12.4101 97.63 11.0787 94.9644 11.0787C92.2987 11.0787 92.2987 12.5052 92.2987 13.2184H86.5866C86.5866 12.6003 86.5866 7.03711 94.9168 7.03711C103.628 7.03711 103.628 12.5052 103.628 13.789V22.2526C103.628 23.3937 103.771 24.5824 104.009 25.2005H98.1537ZM97.5824 17.3075L95.726 17.4026C93.0603 17.5453 92.2987 18.306 92.2987 19.6374C92.2987 20.6359 92.8699 21.3016 94.298 21.3016C96.3924 21.3016 97.5824 19.9227 97.5824 17.3075Z" />
<path d="M126.238 14.0267V25.2005H120.193V14.8826C120.193 13.9792 120.193 11.6017 117.765 11.6017C115.528 11.6017 114.148 13.2659 114.148 15.9286V25.2005H108.055V7.4175H113.767V10.3655C114.862 8.17827 117.194 7.03711 119.717 7.03711C123.715 7.03711 126.238 9.69981 126.238 14.0267Z" />
<path d="M129.57 16.309C129.57 10.5557 133.093 7.03711 138.853 7.03711C143.851 7.03711 147.278 9.65226 147.373 13.4561H141.28C141.185 12.6954 140.566 11.5066 138.805 11.5066C136.996 11.5066 135.759 13.361 135.759 16.309C135.759 19.257 136.806 21.0638 138.853 21.0638C140.519 21.0638 141.328 19.9702 141.328 19.1619H147.421C147.278 22.9182 143.994 25.5334 138.853 25.5334C132.712 25.5334 129.57 22.2526 129.57 16.309Z" />
<path d="M161.178 25.2005C160.94 24.63 160.844 23.5364 160.797 22.4903C159.559 24.63 157.179 25.5809 154.751 25.5809C151.705 25.5809 149.23 23.679 149.23 20.208C149.23 16.1188 152.181 14.5022 159.178 14.1218L160.654 14.0267V13.789C160.654 12.4101 160.654 11.0787 157.988 11.0787C155.323 11.0787 155.323 12.5052 155.323 13.2184H149.611C149.611 12.6003 149.611 7.03711 157.941 7.03711C166.652 7.03711 166.652 12.5052 166.652 13.789V22.2526C166.652 23.3937 166.795 24.5824 167.033 25.2005H161.178ZM160.606 17.3075L158.75 17.4026C156.084 17.5453 155.323 18.306 155.323 19.6374C155.323 20.6359 155.894 21.3016 157.322 21.3016C159.416 21.3016 160.606 19.9227 160.606 17.3075Z" />
<path d="M169.603 19.8277H175.601C175.601 20.4933 175.982 21.4918 178.362 21.4918C179.837 21.4918 180.837 21.1115 180.837 20.3031C180.837 19.4948 180.028 19.1144 177.838 18.7816C174.792 18.2586 170.079 17.3551 170.079 12.8381C170.079 9.22439 173.173 6.98962 178.171 6.98962C183.55 6.98962 186.263 9.31949 186.263 12.743H180.266C180.266 12.0297 180.028 11.0312 178.028 11.0312C176.838 11.0312 175.934 11.4116 175.934 12.1724C175.934 13.0283 176.696 13.266 178.885 13.6939C181.932 14.2645 186.692 15.2155 186.692 19.685C186.692 23.5364 183.788 25.5334 178.124 25.5334C172.126 25.5334 169.603 23.4889 169.603 19.8277Z" />
<path d="M141.994 32H134.949C133.712 32 132.712 31.0015 132.712 29.7652V29.3373C132.712 28.1011 133.712 27.1025 134.949 27.1025H141.994C143.232 27.1025 144.232 28.1011 144.232 29.3373V29.7652C144.184 31.0015 143.184 32 141.994 32Z" />
<path d="M58.359 5.2303H56.5977C55.3601 5.2303 54.3605 4.23178 54.3605 2.99553V2.52005C54.3605 1.28379 55.3601 0.285278 56.5977 0.285278H58.359C59.5966 0.285278 60.5962 1.28379 60.5962 2.52005V2.99553C60.5486 4.23178 59.5966 5.2303 58.359 5.2303Z" />
</svg>
