<svg width="219" height="35" viewBox="0 0 219 35" fill="none" xmlns="http://www.w3.org/2000/svg">
<path d="M51.2493 15.1753H55.8773C59.4992 15.1753 61.4108 13.842 61.4108 11.2779C61.4108 8.81646 59.4992 7.38059 55.8773 7.38059H51.2493V15.1753ZM70.7674 34.5595H62.2157C61.7126 33.739 61.4108 32.7134 61.2096 29.7391C60.9077 23.688 60.0023 22.047 55.0725 22.047H51.0481V34.5595H42.6976V0.406372H57.2858C65.5357 0.406372 69.7613 4.61142 69.7613 11.2779C69.7613 14.6625 68.2522 17.3291 65.3345 18.9701C68.0509 20.3034 69.4595 23.4828 69.5601 29.0212C69.8619 31.5852 70.2643 33.3288 70.7674 34.5595Z" fill="white"/>
<path d="M82.2528 19.9027H90.1792C90.0801 17.2384 88.9902 15.4964 86.216 15.4964C83.838 15.4964 82.6491 16.8286 82.2528 19.9027ZM98.2046 24.4115H82.2528C82.6491 27.7931 84.3334 28.9203 86.6123 28.9203C88.792 28.9203 89.6838 27.7931 89.8819 26.7684H97.9074C97.412 31.6871 93.647 34.9662 86.216 34.9662C78.1905 34.9662 73.9301 30.4574 73.9301 22.3621C74.0291 14.5742 78.884 9.75793 86.315 9.75793C93.746 9.75793 98.4028 13.8568 98.4028 21.5423C98.5019 22.772 98.4028 23.7967 98.2046 24.4115Z" fill="white"/>
<path d="M101.604 22.2105C101.604 14.2253 106.23 9.3512 113.809 9.3512C120.304 9.3512 124.832 12.9808 124.93 18.166H116.958C116.86 17.129 115.974 15.4697 113.71 15.4697C111.348 15.4697 109.675 17.9586 109.675 22.1068C109.675 26.1512 111.053 28.7438 113.71 28.7438C115.875 28.7438 116.958 27.1883 116.958 26.1512H124.93C124.733 31.3364 120.501 34.9661 113.71 34.9661C105.738 34.9661 101.604 30.4031 101.604 22.2105Z" fill="white"/>
<path d="M146.279 9.96291L145.977 16.6245C145.273 16.522 144.77 16.522 144.066 16.522C139.439 16.522 137.427 18.9817 137.427 24.6185V34.5596H129.279V10.2704H137.125V14.9847C138.533 11.7052 141.149 9.75793 144.569 9.75793C145.172 9.75793 145.776 9.75793 146.279 9.96291Z" fill="white"/>
<path d="M165.027 34.4539C164.729 33.7365 164.63 32.3017 164.531 30.7644C162.943 33.5315 160.065 34.9663 156.889 34.9663C151.53 34.9663 148.256 31.3793 148.256 25.4351V10.1646H156.294V24.2052C156.294 25.4351 156.294 28.6122 159.469 28.6122C162.447 28.6122 164.233 26.3575 164.233 22.6679V10.1646H172.271V30.4569C172.271 31.9942 172.47 33.634 172.767 34.4539H165.027Z" fill="white"/>
<path d="M192.039 16.1819H186.636V25.0094C186.636 26.9597 186.636 29.0126 189.238 29.0126C190.338 29.0126 191.139 28.8073 192.039 28.4994V34.2476C190.638 34.8635 188.637 34.9661 186.836 34.9661C181.833 34.9661 178.632 32.9132 178.632 27.6782V16.1819H175.93V10.2284H178.732L179.032 3.65906H186.736V10.2284H192.139V16.1819H192.039Z" fill="white"/>
<path d="M210.056 23.6942L207.664 23.7967C204.076 24.0016 203.179 25.0264 203.179 26.8709C203.179 28.203 203.877 29.1253 205.77 29.1253C208.461 29.1253 210.056 27.2808 210.056 23.6942ZM210.853 34.4539C210.554 33.7366 210.455 32.1995 210.355 30.7648C208.661 33.7366 205.571 34.9662 202.282 34.9662C198.196 34.9662 194.907 32.4044 194.907 27.6907C194.907 22.1571 198.893 19.9027 208.063 19.3904L210.056 19.2879V18.9805C210.056 17.0335 210.056 15.2915 206.568 15.2915C203.079 15.2915 203.079 17.2384 203.079 18.1607H195.505C195.505 17.3409 195.505 9.75793 206.568 9.75793C218.129 9.75793 218.129 17.2384 218.129 18.9805V30.5599C218.129 32.097 218.328 33.7366 218.628 34.5563H210.853V34.4539Z" fill="white"/>
<path d="M10.0155 16.7292C13.3289 16.7292 15.337 14.3686 15.337 10.5712C15.337 6.77379 13.3289 4.41323 10.0155 4.41323H6.70206V16.8318H10.0155V16.7292ZM10.0155 0C16.5418 0 20.5581 4.00269 20.5581 10.5712C20.5581 17.1397 16.5418 21.1424 10.0155 21.1424H1.58136V0H10.0155Z" fill="white"/>
<path d="M34 5.79559L33.7947 9.9433C33.3841 9.83961 32.9736 9.83961 32.6657 9.83961C29.6891 9.83961 28.4575 11.395 28.4575 14.9206V21.1421H23.3256V6.00297H28.2522V8.90637C29.0733 6.83252 30.8182 5.69189 32.9736 5.69189C33.2815 5.69189 33.692 5.69189 34 5.79559Z" fill="white"/>
<path d="M26.2433 33.4262C24.3474 33.4262 22.8506 31.8861 22.8506 29.9353C22.8506 27.9845 24.3474 26.4444 26.2433 26.4444C28.1392 26.4444 29.636 27.9845 29.636 29.9353C29.636 31.7834 28.0394 33.4262 26.2433 33.4262ZM26.3431 24.8016H4.88944C2.19526 24.8016 0 27.0604 0 29.9353C0 32.7075 2.19526 34.9663 4.88944 34.9663H26.3431C29.0373 34.9663 31.2325 32.7075 31.2325 29.9353C31.2325 27.0604 29.0373 24.8016 26.3431 24.8016Z" fill="white"/>
</svg>
